<mxfile host="app.diagrams.net" agent="Mozilla/5.0 (Windows NT 10.0; Win64; x64) AppleWebKit/537.36 (KHTML, like Gecko) Chrome/127.0.0.0 Safari/537.36" version="24.7.8">
  <diagram name="Page-1" id="9PkmLH54kzMla0i9NlLz">
    <mxGraphModel dx="1058" dy="1097" grid="1" gridSize="10" guides="1" tooltips="1" connect="1" arrows="1" fold="1" page="1" pageScale="1" pageWidth="850" pageHeight="1100" math="0" shadow="0">
      <root>
        <mxCell id="0" />
        <mxCell id="1" parent="0" />
        <mxCell id="Yx8PBwtsTMhz65KYFeF4-1" value="random_access_range&lt;div style=&quot;font-size: 14px;&quot;&gt;common_range&lt;/div&gt;&lt;div style=&quot;font-size: 14px;&quot;&gt;size_range&lt;/div&gt;&lt;div style=&quot;font-size: 14px;&quot;&gt;borrow_range&lt;/div&gt;&lt;div style=&quot;font-size: 14px;&quot;&gt;.......&lt;/div&gt;" style="shape=parallelogram;perimeter=parallelogramPerimeter;whiteSpace=wrap;html=1;fixedSize=1;fontSize=14;" vertex="1" parent="1">
          <mxGeometry x="80" y="310" width="240" height="100" as="geometry" />
        </mxCell>
        <mxCell id="Yx8PBwtsTMhz65KYFeF4-2" value="views&lt;div&gt;-----------------&lt;/div&gt;&lt;div&gt;views::take&lt;/div&gt;&lt;div&gt;views::filter&lt;/div&gt;&lt;div&gt;....&lt;/div&gt;" style="rounded=0;whiteSpace=wrap;html=1;fontSize=14;" vertex="1" parent="1">
          <mxGeometry x="122.5" y="160" width="155" height="90" as="geometry" />
        </mxCell>
        <mxCell id="Yx8PBwtsTMhz65KYFeF4-3" value="algorithms&lt;div&gt;----------------&lt;/div&gt;&lt;div&gt;ranges::sort&lt;/div&gt;&lt;div&gt;ranges::accumulate&lt;/div&gt;&lt;div&gt;....&lt;/div&gt;" style="rounded=0;whiteSpace=wrap;html=1;fontSize=14;" vertex="1" parent="1">
          <mxGeometry x="400" y="320" width="140" height="100" as="geometry" />
        </mxCell>
        <mxCell id="Yx8PBwtsTMhz65KYFeF4-5" value="" style="shape=flexArrow;endArrow=classic;html=1;rounded=0;entryX=0.5;entryY=0;entryDx=0;entryDy=0;" edge="1" parent="1" source="Yx8PBwtsTMhz65KYFeF4-2" target="Yx8PBwtsTMhz65KYFeF4-1">
          <mxGeometry width="50" height="50" relative="1" as="geometry">
            <mxPoint x="20" y="280" as="sourcePoint" />
            <mxPoint x="70" y="230" as="targetPoint" />
          </mxGeometry>
        </mxCell>
        <mxCell id="Yx8PBwtsTMhz65KYFeF4-6" value="&lt;font style=&quot;font-size: 14px;&quot;&gt;views model some concepts.&lt;/font&gt;" style="edgeLabel;html=1;align=center;verticalAlign=middle;resizable=0;points=[];" vertex="1" connectable="0" parent="Yx8PBwtsTMhz65KYFeF4-5">
          <mxGeometry x="0.1" y="2" relative="1" as="geometry">
            <mxPoint x="-2" y="-9" as="offset" />
          </mxGeometry>
        </mxCell>
        <mxCell id="Yx8PBwtsTMhz65KYFeF4-10" value="" style="shape=flexArrow;endArrow=classic;html=1;rounded=0;exitX=1;exitY=0.5;exitDx=0;exitDy=0;" edge="1" parent="1" source="Yx8PBwtsTMhz65KYFeF4-1">
          <mxGeometry width="50" height="50" relative="1" as="geometry">
            <mxPoint x="370" y="410" as="sourcePoint" />
            <mxPoint x="400" y="360" as="targetPoint" />
          </mxGeometry>
        </mxCell>
        <mxCell id="Yx8PBwtsTMhz65KYFeF4-11" value="&lt;font style=&quot;font-size: 13px;&quot;&gt;Apply&lt;/font&gt;" style="edgeLabel;html=1;align=center;verticalAlign=middle;resizable=0;points=[];" vertex="1" connectable="0" parent="Yx8PBwtsTMhz65KYFeF4-10">
          <mxGeometry x="0.0727" y="4" relative="1" as="geometry">
            <mxPoint as="offset" />
          </mxGeometry>
        </mxCell>
      </root>
    </mxGraphModel>
  </diagram>
</mxfile>
